<svg width="254" height="220" viewBox="0 0 254 220" fill="none" xmlns="http://www.w3.org/2000/svg">
<path d="M190.732 0.43214L254.164 110.3L190.732 220.167L63.8677 220.167L0.435567 110.3L63.8677 0.432139L190.732 0.43214Z" fill="#EF3E4A"/>
<path d="M75.2756 20.8627L177.482 20.8627L228.585 109.376L177.482 197.889L75.2756 197.889L24.1724 109.376L75.2756 20.8627Z" stroke="white" stroke-width="2"/>
<path d="M192.279 71.6137C191.043 70.6966 189.351 70.7101 188.133 71.6381L152.509 98.6142L129.115 46.2058C128.004 43.7365 123.933 43.7365 122.823 46.2058L99.1654 99.2164L63.8522 71.6651C62.6279 70.7185 60.9214 70.6924 59.6793 71.6053C58.4322 72.5115 57.9601 74.1479 58.5196 75.5754L83.0565 138.463C83.565 139.779 84.8428 140.639 86.2598 140.639H165.675C167.099 140.639 168.371 139.782 168.877 138.463L193.415 75.5754C193.975 74.1529 193.505 72.5292 192.279 71.6137ZM125.972 56.0122L146.885 102.876L125.045 119.411L104.751 103.582L125.972 56.0122ZM96.2957 105.656L86.3379 127.969L69.4623 84.7181L96.2957 105.656ZM91.2476 133.823L101.88 110.009L119.401 123.678L106.001 133.823H91.2476ZM117.336 133.823L124.983 128.04L132.401 133.823H117.336ZM143.281 133.626L130.624 123.753L149.738 109.275L160.693 133.813H143.505C143.442 133.756 143.362 133.689 143.281 133.626ZM165.609 127.969L155.374 105.021L182.608 84.3981L165.609 127.969ZM168.761 152.812C168.761 154.695 167.221 156.224 165.322 156.224H86.6189C84.7205 156.224 83.1804 154.696 83.1804 152.812C83.1804 150.93 84.7205 149.401 86.6189 149.401H165.322C167.224 149.402 168.761 150.93 168.761 152.812Z" fill="white"/>
<path d="M112.681 181.344V184.578H100.911L104.629 180.684C105.964 179.29 106.969 178.051 107.643 176.966C108.171 176.144 108.435 175.382 108.435 174.678C108.435 174.062 108.289 173.592 107.995 173.27C107.731 172.976 107.372 172.83 106.917 172.83C106.375 172.83 105.949 173.028 105.641 173.424C105.319 173.834 105.143 174.436 105.113 175.228H101.175C101.19 173.585 101.733 172.228 102.803 171.158C103.859 170.102 105.245 169.574 106.961 169.574C108.707 169.574 110.085 170.08 111.097 171.092C112.051 172.045 112.527 173.248 112.527 174.7C112.527 176.254 111.801 177.706 110.349 179.056L107.885 181.344H112.681ZM121.297 173.446C120.959 173.138 120.571 172.984 120.131 172.984C119.691 172.984 119.302 173.138 118.965 173.446C118.583 173.768 118.275 174.311 118.041 175.074C117.806 175.822 117.689 176.555 117.689 177.274C117.689 177.934 117.799 178.652 118.019 179.43C118.253 180.192 118.569 180.75 118.965 181.102C119.302 181.41 119.691 181.564 120.131 181.564C120.571 181.564 120.959 181.41 121.297 181.102C121.678 180.764 121.986 180.222 122.221 179.474C122.455 178.711 122.573 177.985 122.573 177.296C122.573 176.606 122.448 175.873 122.199 175.096C121.964 174.318 121.663 173.768 121.297 173.446ZM126.357 177.252C126.357 179.818 125.631 181.813 124.179 183.236C123.049 184.35 121.7 184.908 120.131 184.908C118.561 184.908 117.212 184.35 116.083 183.236C114.631 181.813 113.905 179.818 113.905 177.252C113.905 174.67 114.631 172.668 116.083 171.246C117.212 170.131 118.561 169.574 120.131 169.574C121.7 169.574 123.049 170.131 124.179 171.246C125.631 172.668 126.357 174.67 126.357 177.252ZM139.064 181.344V184.578H127.294L131.012 180.684C132.347 179.29 133.352 178.051 134.026 176.966C134.554 176.144 134.818 175.382 134.818 174.678C134.818 174.062 134.672 173.592 134.378 173.27C134.114 172.976 133.755 172.83 133.3 172.83C132.758 172.83 132.332 173.028 132.024 173.424C131.702 173.834 131.526 174.436 131.496 175.228H127.558C127.573 173.585 128.116 172.228 129.186 171.158C130.242 170.102 131.628 169.574 133.344 169.574C135.09 169.574 136.468 170.08 137.48 171.092C138.434 172.045 138.91 173.248 138.91 174.7C138.91 176.254 138.184 177.706 136.732 179.056L134.268 181.344H139.064ZM143.15 184.578V173.138H141.06V169.904H146.956V184.578H143.15Z" fill="white"/>
</svg>
